<svg width="295" height="97" viewBox="0 0 295 97" xmlns="http://www.w3.org/2000/svg"><title>Artboard</title><desc>Created with Sketch.</desc><path d="M263.377 62.341h14.838v-2.756l-2.783-1.378v-18.374c1.113-.827 2.596-1.011 3.988-1.011 2.596 0 3.524.827 3.524 3.767v15.618l-2.783 1.378v2.756h14.838v-2.756l-2.783-1.378v-17.455c0-5.237-2.039-7.625-6.677-7.625-3.801 0-7.512 1.378-10.016 3.675v-3.858h-.928l-11.499 2.021v2.48l3.152 1.47v19.292l-2.783 1.378-.092 2.756h.002zm-35.89-40.973c-2.783 0-5.007 2.205-5.007 5.053 0 2.756 2.226 4.961 5.007 4.961 2.69 0 5.007-2.205 5.007-4.961-.092-2.848-2.319-5.053-5.007-5.053zm-7.697 13.505v2.572l2.783 1.47v19.201l-2.783 1.378v2.756h14.838v-2.756l-2.783-1.378v-25.08h-.928l-11.129 1.837h.002zm-13.076 21.957c-.649.551-1.485 1.011-2.875 1.011-3.709 0-5.471-3.032-5.471-10.014 0-7.993 2.226-10.749 5.194-10.749 1.67 0 2.503.551 3.152 1.286v18.466zm0-22.508c-1.113-.827-2.968-1.286-4.545-1.286-6.863 0-13.447 3.95-13.447 15.434 0 10.932 6.584 14.423 10.942 14.423 3.524 0 5.935-1.562 7.048-3.124h.277v3.032h.834l11.036-1.286v-2.113l-2.968-1.654v-36.196h-.741l-11.685 1.837v2.572l3.152 1.47v6.89h.096zm-38.858 3.215l2.783 1.378v19.201l-2.783 1.378v2.756h15.766v-2.756l-3.617-1.378v-14.975c1.67-1.286 3.709-1.746 6.214-1.746.834 0 1.485.184 2.039.276v-8.268c-.277-.092-.649-.184-1.113-.184-3.06 0-5.471 1.929-7.141 5.696v-5.971h-1.021l-11.129 1.837v2.756zm-17.898-.735c3.617 0 4.637 1.837 4.637 5.42v3.215l-5.379 1.011c-5.471 1.011-9.644 2.756-9.644 8.544 0 4.685 3.245 7.993 7.697 7.993 3.524 0 6.863-1.562 8.069-4.042h.277c.464 3.032 3.06 4.042 5.935 4.042 2.226 0 4.452-.551 5.286-1.47v-1.837l-2.783-1.378v-16.536c0-6.339-4.637-8.636-12.15-8.636-4.915 0-8.161 1.286-10.757 2.48v7.166h4.358l1.855-5.512c.834-.459 2.226-.459 2.596-.459h.002zm2.134 21.038c-1.762 0-3.709-1.011-3.709-4.226 0-2.205 2.226-4.226 4.452-4.593l2.039-.459v7.809s-1.762 1.47-2.783 1.47zm93.48-21.038c3.617 0 4.637 1.837 4.637 5.42v3.215l-5.379 1.011c-5.471 1.011-9.644 2.756-9.644 8.544 0 4.685 3.245 7.993 7.697 7.993 3.524 0 6.863-1.562 8.069-4.042h.277c.464 3.032 3.06 4.042 5.935 4.042 2.226 0 4.452-.551 5.286-1.47v-1.837l-2.783-1.378v-16.536c0-6.339-4.637-8.636-12.15-8.636-4.915 0-8.161 1.286-10.757 2.48v7.166h4.358l1.855-5.512c.741-.459 2.134-.459 2.596-.459h.002zm2.039 21.038c-1.762 0-3.709-1.011-3.709-4.226 0-2.205 2.226-4.226 4.452-4.593l2.039-.459v7.809s-1.762 1.47-2.783 1.47zm-128.627 5.145c.372 0 .834 0 1.206-.092 3.245-.276 6.214-1.837 7.79-3.858v3.767l11.129-1.378v-1.837l-2.783-1.837v-24.804h-.928l-11.036 2.113v2.572l3.617 1.47v16.812c-1.021.735-2.226 1.194-3.896 1.194-2.319 0-4.452-.735-4.452-3.95v-20.211h-.928l-11.129 2.297v2.389l3.709 1.47v14.975c0 4.961 2.039 8.911 7.697 8.911h.006zm-29.955-7.074c-1.113 0-2.319-.735-2.319-1.746 0-.735.557-1.562 1.206-2.113 1.485.459 2.783.551 4.637.551 7.233 0 12.242-3.399 12.242-9.554 0-2.756-1.206-4.226-2.968-5.88l4.822 1.286v-5.512l-7.605 1.47c-1.762-.643-4.173-1.47-6.492-1.47-7.233 0-12.242 3.767-12.242 9.922 0 3.767 1.855 6.523 4.637 8.084l.277.184c-1.577 1.102-4.915 3.675-4.915 6.615 0 2.205 1.39 4.41 4.452 5.053-3.152.735-6.863 2.297-6.863 5.971 0 3.767 5.471 7.349 14.374 7.349 10.942 0 15.302-5.237 15.302-11.943 0-5.604-2.596-8.268-8.81-8.268h-9.737zm6.956-12.862c0 5.237-1.206 5.971-3.245 5.971s-3.709-.735-3.709-5.971c0-5.328 1.67-6.89 3.709-6.89s3.245 1.837 3.245 6.89zm-10.665 24.713c.092-1.378 1.021-3.124 3.432-3.307h7.975c2.319 0 3.432 1.837 3.432 3.307 0 2.94-1.855 4.042-7.697 4.042-5.101 0-7.233-2.021-7.141-4.042zm-8.346-19.201c0-11.943-4.73-15.526-12.055-15.526-8.346 0-13.912 5.696-13.912 15.066 0 9.646 5.101 14.883 14.653 14.883 5.194 0 9.088-2.48 10.387-4.318v-2.756c-1.947.643-3.617 1.102-7.233 1.102-5.007 0-8.531-2.94-8.531-8.452h16.692-.002zm-12.15-12.31c2.319 0 3.524 1.746 3.524 8.819l-7.79.459c.185-7.258 1.67-9.279 4.266-9.279zm-30.512 26.091v-2.756l-2.783-1.378v-17.914c1.113-.827 3.06-1.562 4.452-1.562 2.596 0 3.988 1.378 3.896 3.858v15.618l-2.783 1.378v2.756h14.838v-2.756l-2.783-1.378v-17.455c0-5.237-3.06-7.625-7.141-7.625-3.801 0-7.975 1.194-10.48 3.491v-15.618h-.928l-11.129 1.837v2.756l3.709 1.378v31.235l-2.783 1.378v2.756h13.914000000000001zm-30.604-7.901c0 5.237 2.596 8.544 8.254 8.544 2.875 0 6.028-.735 7.79-2.113v-3.491c-.741.276-2.039.459-3.06.459-2.69 0-3.709-1.47-3.709-4.226v-15.158h6.492v-4.593h-6.492v-6.89l-9.274 1.378v5.512l-3.709.919v3.675h3.709v15.985z" fill-rule="nonzero" fill="#000"/></svg>