<?xml version="1.0" encoding="UTF-8" standalone="no"?>
<svg width="160px" height="45px" viewBox="0 0 160 45" version="1.1" xmlns="http://www.w3.org/2000/svg" xmlns:xlink="http://www.w3.org/1999/xlink">
    <!-- Generator: Sketch 48.1 (47250) - http://www.bohemiancoding.com/sketch -->
    <title>Artboard</title>
    <desc>Created with Sketch.</desc>
    <defs></defs>
    <g id="Page-1" stroke="none" stroke-width="1" fill="none" fill-rule="evenodd">
        <g id="Artboard" fill="#000000" fill-rule="nonzero">
            <g id="guardian-logo-160" transform="translate(0.000000, 8.000000)">
                <path d="M142.445141,22.5 L150.470219,22.5 L150.470219,21 L148.965517,20.25 L148.965517,10.25 C149.567398,9.8 150.369906,9.7 151.122257,9.7 C152.526646,9.7 153.028213,10.15 153.028213,11.75 L153.028213,20.25 L151.523511,21 L151.523511,22.5 L159.548589,22.5 L159.548589,21 L158.043887,20.25 L158.043887,10.75 C158.043887,7.9 156.940439,6.6 154.432602,6.6 C152.376176,6.6 150.369906,7.35 149.015674,8.6 L149.015674,6.5 L148.514107,6.5 L142.294671,7.6 L142.294671,8.95 L144,9.75 L144,20.25 L142.495298,21 L142.445141,22.5 Z M123.034483,0.2 C121.529781,0.2 120.326019,1.4 120.326019,2.95 C120.326019,4.45 121.529781,5.65 123.034483,5.65 C124.489028,5.65 125.742947,4.45 125.742947,2.95 C125.69279,1.4 124.489028,0.2 123.034483,0.2 Z M118.871473,7.55 L118.871473,8.95 L120.376176,9.75 L120.376176,20.2 L118.871473,20.95 L118.871473,22.45 L126.896552,22.45 L126.896552,20.95 L125.39185,20.2 L125.39185,6.55 L124.890282,6.55 L118.871473,7.55 Z M111.799373,19.5 C111.448276,19.8 110.996865,20.05 110.244514,20.05 C108.238245,20.05 107.285266,18.4 107.285266,14.6 C107.285266,10.25 108.489028,8.75 110.094044,8.75 C110.996865,8.75 111.448276,9.05 111.799373,9.45 L111.799373,19.5 Z M111.799373,7.25 C111.197492,6.8 110.194357,6.55 109.341693,6.55 C105.630094,6.55 102.068966,8.7 102.068966,14.95 C102.068966,20.9 105.630094,22.8 107.987461,22.8 C109.893417,22.8 111.197492,21.95 111.799373,21.1 L111.949843,21.1 L111.949843,22.75 L112.401254,22.75 L118.369906,22.05 L118.369906,20.9 L116.76489,20 L116.76489,0.3 L116.363636,0.3 L110.043887,1.3 L110.043887,2.7 L111.749216,3.5 L111.749216,7.25 L111.799373,7.25 Z M90.7836991,9 L92.2884013,9.75 L92.2884013,20.2 L90.7836991,20.95 L90.7836991,22.45 L99.3103448,22.45 L99.3103448,20.95 L97.354232,20.2 L97.354232,12.05 C98.2570533,11.35 99.3605016,11.1 100.714734,11.1 C101.166144,11.1 101.517241,11.2 101.818182,11.25 L101.818182,6.75 C101.667712,6.7 101.467085,6.65 101.216301,6.65 C99.5611285,6.65 98.2570533,7.7 97.354232,9.75 L97.354232,6.5 L96.8025078,6.5 L90.7836991,7.5 L90.7836991,9 Z M81.1034483,8.6 C83.0595611,8.6 83.6112853,9.6 83.6112853,11.55 L83.6112853,13.3 L80.7021944,13.85 C77.7429467,14.4 75.4858934,15.35 75.4858934,18.5 C75.4858934,21.05 77.2413793,22.85 79.6489028,22.85 C81.5548589,22.85 83.3605016,22 84.0125392,20.65 L84.1630094,20.65 C84.4137931,22.3 85.8181818,22.85 87.3730408,22.85 C88.5768025,22.85 89.7805643,22.55 90.2319749,22.05 L90.2319749,21.05 L88.7272727,20.3 L88.7272727,11.3 C88.7272727,7.85 86.2194357,6.6 82.1567398,6.6 C79.4984326,6.6 77.7429467,7.3 76.338558,7.95 L76.338558,11.85 L78.6959248,11.85 L79.6990596,8.85 C80.1504702,8.6 80.9028213,8.6 81.1034483,8.6 Z M82.2570533,20.05 C81.3040752,20.05 80.2507837,19.5 80.2507837,17.75 C80.2507837,16.55 81.4545455,15.45 82.6583072,15.25 L83.7617555,15 L83.7617555,19.25 C83.7617555,19.25 82.8087774,20.05 82.2570533,20.05 Z M132.815047,8.6 C134.77116,8.6 135.322884,9.6 135.322884,11.55 L135.322884,13.3 L132.413793,13.85 C129.454545,14.4 127.197492,15.35 127.197492,18.5 C127.197492,21.05 128.952978,22.85 131.360502,22.85 C133.266458,22.85 135.0721,22 135.724138,20.65 L135.874608,20.65 C136.125392,22.3 137.529781,22.85 139.084639,22.85 C140.288401,22.85 141.492163,22.55 141.943574,22.05 L141.943574,21.05 L140.438871,20.3 L140.438871,11.3 C140.438871,7.85 137.931034,6.6 133.868339,6.6 C131.210031,6.6 129.454545,7.3 128.050157,7.95 L128.050157,11.85 L130.407524,11.85 L131.410658,8.85 C131.811912,8.6 132.564263,8.6 132.815047,8.6 Z M133.918495,20.05 C132.965517,20.05 131.912226,19.5 131.912226,17.75 C131.912226,16.55 133.115987,15.45 134.319749,15.25 L135.423197,15 L135.423197,19.25 C135.423197,19.25 134.470219,20.05 133.918495,20.05 Z M64.3510972,22.85 C64.5517241,22.85 64.8025078,22.85 65.0031348,22.8 C66.7586207,22.65 68.3636364,21.8 69.2163009,20.7 L69.2163009,22.75 L75.2351097,22 L75.2351097,21 L73.7304075,20 L73.7304075,6.5 L73.2288401,6.5 L67.2601881,7.65 L67.2601881,9.05 L69.2163009,9.85 L69.2163009,19 C68.6645768,19.4 68.0125392,19.65 67.1097179,19.65 C65.8557994,19.65 64.7021944,19.25 64.7021944,17.5 L64.7021944,6.5 L64.200627,6.5 L58.1818182,7.75 L58.1818182,9.05 L60.1880878,9.85 L60.1880878,18 C60.1880878,20.7 61.2915361,22.85 64.3510972,22.85 Z M48.1504702,19 C47.5485893,19 46.8965517,18.6 46.8965517,18.05 C46.8965517,17.65 47.1974922,17.2 47.5485893,16.9 C48.3510972,17.15 49.0532915,17.2 50.0564263,17.2 C53.968652,17.2 56.677116,15.35 56.677116,12 C56.677116,10.5 56.0250784,9.7 55.0721003,8.8 L57.6802508,9.5 L57.6802508,6.5 L53.5673981,7.3 C52.6144201,6.95 51.3103448,6.5 50.0564263,6.5 C46.1442006,6.5 43.4357367,8.55 43.4357367,11.9 C43.4357367,13.95 44.4388715,15.45 45.9435737,16.3 L46.0940439,16.4 C45.2413793,17 43.4357367,18.4 43.4357367,20 C43.4357367,21.2 44.1880878,22.4 45.8432602,22.75 C44.137931,23.15 42.1316614,24 42.1316614,26 C42.1316614,28.05 45.0909091,30 49.9059561,30 C55.8244514,30 58.1818182,27.15 58.1818182,23.5 C58.1818182,20.45 56.7774295,19 53.4169279,19 L48.1504702,19 Z M51.9122257,12 C51.9122257,14.85 51.2601881,15.25 50.1567398,15.25 C49.0532915,15.25 48.1504702,14.85 48.1504702,12 C48.1504702,9.1 49.0532915,8.25 50.1567398,8.25 C51.2601881,8.25 51.9122257,9.25 51.9122257,12 Z M46.1442006,25.45 C46.1943574,24.7 46.6959248,23.75 48,23.65 L52.3134796,23.65 C53.5673981,23.65 54.169279,24.65 54.169279,25.45 C54.169279,27.05 53.1661442,27.65 50.0062696,27.65 C47.2476489,27.65 46.0940439,26.55 46.1442006,25.45 Z" id="Shape"></path>
                <path d="M41.630094,15 C41.630094,8.5 39.0721003,6.55 35.1097179,6.55 C30.5956113,6.55 27.5862069,9.65 27.5862069,14.75 C27.5862069,20 30.3448276,22.85 35.5109718,22.85 C38.3197492,22.85 40.4263323,21.5 41.1285266,20.5 L41.1285266,19 C40.0752351,19.35 39.1724138,19.6 37.2163009,19.6 C34.507837,19.6 32.6018809,18 32.6018809,15 L41.630094,15 Z M35.0595611,8.3 C36.3134796,8.3 36.9655172,9.25 36.9655172,13.1 L32.7523511,13.35 C32.8526646,9.4 33.6551724,8.3 35.0595611,8.3 Z M18.5579937,22.5 L18.5579937,21 L17.0532915,20.25 L17.0532915,10.5 C17.6551724,10.05 18.7084639,9.65 19.460815,9.65 C20.8652038,9.65 21.6175549,10.4 21.5673981,11.75 L21.5673981,20.25 L20.0626959,21 L20.0626959,22.5 L28.0877743,22.5 L28.0877743,21 L26.5830721,20.25 L26.5830721,10.75 C26.5830721,7.9 24.9278997,6.6 22.7210031,6.6 C20.6645768,6.6 18.4075235,7.25 17.0532915,8.5 L17.0532915,0 L16.5517241,0 L10.5329154,1 L10.5329154,2.5 L12.539185,3.25 L12.539185,20.25 L11.0344828,21 L11.0344828,22.5 L18.5579937,22.5 Z M2.00626959,18.2 C2.00626959,21.05 3.41065831,22.85 6.47021944,22.85 C8.02507837,22.85 9.73040752,22.45 10.6833856,21.7 L10.6833856,19.8 C10.2821317,19.95 9.5799373,20.05 9.02821317,20.05 C7.57366771,20.05 7.02194357,19.25 7.02194357,17.75 L7.02194357,9.5 L10.5329154,9.5 L10.5329154,7 L7.02194357,7 L7.02194357,3.25 L2.00626959,4 L2.00626959,7 L7.10542736e-15,7.5 L7.10542736e-15,9.5 L2.00626959,9.5 L2.00626959,18.2 Z" id="Shape"></path>
            </g>
        </g>
    </g>
</svg>