<svg width="46" height="46" viewBox="0 0 46 46" xmlns="http://www.w3.org/2000/svg" xmlns:xlink="http://www.w3.org/1999/xlink"><defs><filter x="-50%" y="-50%" width="200%" height="200%" filterUnits="objectBoundingBox" id="a"><feOffset dy="1" in="SourceAlpha" result="shadowOffsetOuter1"/><feGaussianBlur stdDeviation=".5" in="shadowOffsetOuter1" result="shadowBlurOuter1"/><feColorMatrix values="0 0 0 0 0 0 0 0 0 0 0 0 0 0 0 0 0 0 0.168 0" in="shadowBlurOuter1" result="shadowMatrixOuter1"/><feOffset in="SourceAlpha" result="shadowOffsetOuter2"/><feGaussianBlur stdDeviation=".5" in="shadowOffsetOuter2" result="shadowBlurOuter2"/><feColorMatrix values="0 0 0 0 0 0 0 0 0 0 0 0 0 0 0 0 0 0 0.084 0" in="shadowBlurOuter2" result="shadowMatrixOuter2"/><feMerge><feMergeNode in="shadowMatrixOuter1"/><feMergeNode in="shadowMatrixOuter2"/><feMergeNode in="SourceGraphic"/></feMerge></filter><rect id="b" width="40" height="40" rx="2"/></defs><g fill="none" fill-rule="evenodd"><g transform="translate(3 3)" filter="url(#a)"><use fill="#FFF" xlink:href="#b"/><use xlink:href="#b"/><use xlink:href="#b"/><use xlink:href="#b"/></g><path d="M31.64 23.2c0-.63-.06-1.25-.16-1.84H23v3.48h4.84a4.14 4.14 0 0 1-1.8 2.72v2.26h2.92a8.78 8.78 0 0 0 2.68-6.62z" fill="#4285F4"/><path d="M23 32a8.6 8.6 0 0 0 5.96-2.18l-2.9-2.26a5.4 5.4 0 0 1-8.1-2.85h-3v2.34A9 9 0 0 0 23 32z" fill="#34A853"/><path d="M17.96 24.7a5.4 5.4 0 0 1 0-3.4v-2.34h-3a9 9 0 0 0 0 8.08l3-2.33z" fill="#FBBC05"/><path d="M23 17.58c1.32 0 2.5.45 3.44 1.35l2.58-2.6a9 9 0 0 0-14.06 2.6l3 2.36c.7-2.14 2.7-3.72 5.04-3.72z" fill="#EA4335"/><path d="M14 14h18v18H14V14z"/></g></svg>
