<svg xmlns="http://www.w3.org/2000/svg" width="220" height="30" viewBox="0 0 900 120"><g fill="#FFF"><path d="M594.684 91.964h34.615v-5.769l-6.674-3.167V42.101c2.492-1.789 5.43-2.402 8.596-2.402 5.771 0 8.482 2.378 8.482 8.941v34.389l-6.672 3.167v5.769h34.615v-5.769l-6.9-3.167V43.885c0-11.65-5.316-16.855-15.838-16.855-8.596 0-16.969 3.054-22.623 8.26v-8.26h-1.699l-26.244 4.187v5.543l7.242 3.281v42.988l-6.9 3.167v5.768zM514.131.786a11.151 11.151 0 0 0-11.197 11.2c0 6.108 4.977 11.085 11.197 11.085 6.109 0 11.201-4.978 11.201-11.085 0-6.223-5.092-11.2-11.201-11.2M496.824 30.992v5.768l7.127 3.281v42.872l-6.787 3.167v5.884h34.617V86.08l-6.789-3.167v-56.11h-1.697zM467.387 80.048c-1.527 1.262-3.279 2.186-6.447 2.186-8.373 0-12.33-6.785-12.33-22.397 0-17.873 4.977-23.867 11.648-23.867 3.738 0 5.602 1.166 7.129 2.845v41.233zm0-50.189c-2.602-1.812-6.674-2.837-10.182-2.837-15.574 0-30.296 8.93-30.296 34.496 0 24.32 14.827 32.141 24.755 32.141 7.918 0 13.346-3.505 15.949-6.898h.678v6.678h1.811l25-2.944v-4.612l-6.674-3.729V1.239h-1.697l-26.357 4.184v5.772l7.014 3.165v15.499zM378.947 30.992v5.768l7.013 3.281v42.873l-6.673 3.167v5.884h36.424V86.08l-8.71-3.167V49.325c3.724-2.929 8.373-3.856 14.026-3.856 1.81 0 4.073.227 5.318.566V27.596c-.679-.225-2.035-.34-3.167-.34-6.9 0-13.233 4.526-16.968 12.897v-13.35h-1.81l-25.453 4.189zM333.751 35.986c1.496-.666 4.575-.697 5.591-.697 8.144 0 10.519 4.071 10.519 12.104l-.016 7.148-12.062 2.265c-12.348 2.279-21.663 6.03-21.663 19.04 0 10.52 7.387 17.811 17.452 17.811 7.92 0 15.386-3.392 18.212-9.049h.568c1.018 6.788 6.899 8.938 13.46 8.938 5.091 0 10.012-1.583 11.879-3.7v-3.651l-6.677-3.167V46.261c0-14.25-10.178-19.464-27.147-19.464-11.086 0-18.33 2.767-24.207 5.567v16.047h9.841l4.25-12.425zm16.11 43.409c-1.21 1.786-3.505 2.726-5.768 2.726-4.073 0-7.917-2.261-7.917-9.273 0-5.007 4.523-9.612 9.477-10.37l4.208-.799v17.716z"/><path d="M548.771 35.986c1.496-.666 4.574-.697 5.59-.697 8.145 0 10.52 4.071 10.52 12.104l-.016 7.148-12.061 2.265c-12.35 2.279-21.666 6.03-21.666 19.04 0 10.52 7.387 17.811 17.453 17.811 7.92 0 15.385-3.392 18.211-9.049h.568c1.02 6.788 6.9 8.938 13.463 8.938 5.088 0 10.012-1.583 11.877-3.7v-3.651l-6.676-3.167V46.261c0-14.25-10.178-19.464-27.148-19.464-11.086 0-18.33 2.767-24.207 5.567v16.047h9.842l4.25-12.425zm16.11 43.409c-1.211 1.786-3.506 2.726-5.768 2.726-4.074 0-7.918-2.261-7.918-9.273 0-5.007 4.523-9.612 9.479-10.37l4.207-.799v17.716zM251.119 73.524c0 10.974 5.43 20.134 18.213 20.134 8.485 0 15.951-3.731 20.023-8.707v8.605h1.695l25.68-3.063v-4.612l-7.127-3.729V27.145h-1.695l-26.358 4.187v5.766l7.013 3.282v37.993c-2.348 1.554-3.959 2.271-7.673 2.271-5.317 0-8.73-1.577-8.73-8.816V27.145h-1.809l-26.357 4.187v5.766l7.125 3.282v33.144zM223.635 78.047H201.01c-2.488 0-4.524-1.809-4.524-4.069 0-1.697 1.244-3.507 2.828-4.638 3.393 1.02 6.222 1.242 10.407 1.242 16.289 0 27.488-7.352 27.488-21.153 0-6.221-2.601-9.73-6.561-13.349l10.725 3.345.021-12.622-17.08 3.171c-3.959-1.474-9.502-3.29-14.593-3.29-16.29 0-27.602 8.379-27.602 22.065 0 8.373 4.187 14.593 10.521 18.102l.505.314c-3.619 2.489-11.14 8.17-11.14 14.844 0 4.978 3.282 9.842 10.069 11.312v.018c-7.127 1.471-15.158 4.507-15.158 12.765 0 8.484 12.216 16.873 32.126 16.873 24.773 0 35.52-11.669 35.52-26.715 0-12.443-6.899-18.215-20.927-18.215m-13.914-43.888c4.637 0 7.813 3.236 7.813 14.59 0 11.652-3.289 14.03-7.813 14.03s-7.7-2.378-7.7-14.03c0-11.933 3.175-14.59 7.7-14.59m-.109 79.194c-11.539 0-15.688-4.507-15.501-8.947.124-3.05 1.634-7 7.05-7.348h17.984c5.203 0 8.493 3.608 8.493 6.892.001 6.56-4.903 9.403-18.026 9.403M175.641 62.211c0-26.583-11.793-35.302-28.167-35.302-18.892 0-31.223 12.341-31.223 33.266 0 21.495 11.199 33.484 32.919 33.484 11.652 0 20.835-6.133 23.777-10.206l.318-5.177c-4.413 1.357-8.937 2.149-16.969 2.149-11.538 0-18.451-5.898-18.438-18.214h37.783zm-28.508-28.168c5.204 0 8.032 3.781 8.032 19.572l-17.532 1.019c.237-16.129 3.732-20.591 9.5-20.591"/><path d="M47.623 91.964h34.615v-5.769l-6.674-3.167-.015-40.834c2.527-1.744 5.411-2.679 8.581-2.679 5.769 0 8.622 3.64 8.516 9.125v34.389l-6.675 3.167v5.769h34.616v-5.769l-6.899-3.167V43.885c0-11.65-6.72-16.855-15.838-16.855-8.597 0-16.989 3.054-22.646 8.26h.021V-.005h-1.696L47.284 4.18v5.543l7.239 3.281v70.024l-6.9 3.167v5.769zM9.729 74.657c0 11.644 5.531 19.001 18.088 19.001 6.559 0 13.558-1.694 17.545-4.669v-7.793c-1.657.535-4.525 1.037-6.788 1.037-6.108 0-7.806-3.167-7.806-9.387V39.474H44.57V28.615H30.769V13.796l-21.04 2.941v11.878L0 30.441v9.033h9.729v35.183z"/></g><g fill="#5BC3DF"><path d="M680.117 36.756V30.99l26.467-4.187h1.699v71.489c0 14.594-7.693 22.51-23.418 22.51-5.428 0-10.631-1.243-13.232-2.827v-7.352c1.807.34 4.297.453 5.994.453 5.203 0 9.615-2.831 9.615-8.26V40.041l-7.125-3.285zm28.389-24.77c0 6.11-5.09 11.083-11.197 11.083-6.221 0-11.197-4.974-11.197-11.083 0-6.221 4.977-11.2 11.197-11.2 6.107 0 11.197 4.979 11.197 11.2zM778.154 60.286c0 21.493-13.232 33.369-32.465 33.369-19.23 0-32.463-11.876-32.463-33.369 0-21.491 13.232-33.256 32.463-33.256 19.233 0 32.465 11.764 32.465 33.256zm-22.058 0c0-20.925-3.279-24.547-10.293-24.547s-10.521 3.622-10.521 24.547c0 20.928 3.508 24.546 10.521 24.546s10.293-3.618 10.293-24.546zM804.629 34.383h.791c3.619-3.847 9.613-7.354 17.76-7.354 10.857 0 22.283 8.709 22.283 32.238 0 25.791-14.705 34.386-34.277 34.386-11.762 0-22.168-2.487-27.598-5.654V14.361l-7.016-3.167V5.423l26.357-4.182h1.699v33.142zm18.773 26.469c0-17.082-4.635-21.491-11.195-21.491-3.396 0-5.771.791-7.578 1.697v42.87c1.242 1.016 3.166 2.148 6.896 2.148 7.92 0 11.877-7.127 11.877-25.224zM849.436 89.581v-16.74h8.936l3.621 10.52c1.469 1.358 6.561 2.038 10.18 2.038 5.998 0 10.18-1.361 10.18-6.336 0-4.636-1.584-6.562-8.367-8.029l-7.695-1.699c-11.65-2.604-17.08-11.876-17.08-21.262 0-12.108 8.256-21.042 26.924-21.042 7.465 0 15.043 1.132 20.02 3.278V45.92h-8.822l-2.713-8.709c-1.473-.791-5.885-1.582-9.279-1.582-4.975 0-8.369 2.373-8.369 6.217 0 3.735 1.697 5.995 8.711 7.467l7.465 1.582C895.357 53.5 900 61.643 900 71.26c0 13.232-8.373 22.283-28.506 22.283-6.789 0-15.951-1.359-22.058-3.962z"/></g></svg>