<svg width="467" height="104" viewBox="0 0 467 104" xmlns="http://www.w3.org/2000/svg"><title>Artboard</title><desc>Created with Sketch.</desc><g fill-rule="nonzero" fill="none"><path d="M308.915 68.731h17.981v-3.024l-3.467-1.66v-21.454c1.294-.938 2.821-1.259 4.465-1.259 2.998 0 4.406 1.247 4.406 4.687v18.026l-3.466 1.66v3.024h17.981v-3.024l-3.584-1.66v-20.519c0-6.107-2.761-8.835-8.227-8.835-4.465 0-8.815 1.601-11.752 4.33v-4.33h-.883l-13.633 2.195v2.906l3.762 1.72v22.534l-3.584 1.66v3.024zm-41.844-47.795c-1.545-.006-3.028.61-4.12 1.713-1.092 1.102-1.703 2.6-1.696 4.158 0 3.202 2.585 5.811 5.816 5.811 3.173 0 5.818-2.609 5.818-5.811 0-3.262-2.645-5.871-5.818-5.871zm-8.99 15.834v3.024l3.702 1.72v22.473l-3.526 1.66v3.084h17.982v-3.084l-3.527-1.66v-29.413h-.882l-13.751 2.196zm-15.291 25.715c-.793.662-1.703 1.146-3.349 1.146-4.349 0-6.405-3.557-6.405-11.74 0-9.369 2.585-12.511 6.051-12.511 1.942 0 2.91.611 3.703 1.491v21.614zm0-26.309c-1.352-.95-3.467-1.487-5.289-1.487-8.09 0-15.738 4.681-15.738 18.083 0 12.748 7.702 16.848 12.859 16.848 4.113 0 6.933-1.837 8.285-3.616h.352v3.501h.941l12.987-1.543v-2.418l-3.467-1.955v-42.415h-.882l-13.691 2.193v3.026l3.643 1.659v8.124h-.001zm-45.941.594v3.024l3.643 1.72v22.474l-3.466 1.66v3.084h18.921v-3.085l-4.525-1.66v-17.607c1.934-1.535 4.349-2.021 7.286-2.021.94 0 2.116.119 2.762.297v-9.666c-.353-.118-1.057-.178-1.645-.178-3.584 0-6.874 2.373-8.814 6.761v-6.998h-.94l-13.222 2.196zm-23.478 2.618c.777-.349 2.377-.365 2.904-.365 4.23 0 5.464 2.134 5.464 6.345l-.008 3.747-6.266 1.187c-6.414 1.195-11.253 3.161-11.253 9.981 0 5.515 3.837 9.336 9.066 9.336 4.114 0 7.992-1.778 9.46-4.743h.295c.529 3.558 3.584 4.685 6.992 4.685 2.645 0 5.201-.83 6.171-1.94v-1.914l-3.468-1.66v-19.273c0-7.47-5.287-10.203-14.102-10.203-5.759 0-9.522 1.45-12.575 2.918v8.412h5.112l2.208-6.513zm8.369 22.755c-.629.936-1.821 1.429-2.996 1.429-2.116 0-4.113-1.185-4.113-4.861 0-2.625 2.35-5.039 4.923-5.436l2.186-.419v9.287zM285.065 39.388c.777-.349 2.376-.365 2.904-.365 4.231 0 5.465 2.134 5.465 6.345l-.008 3.747-6.265 1.187c-6.415 1.195-11.255 3.161-11.255 9.981 0 5.515 3.837 9.336 9.066 9.336 4.114 0 7.992-1.778 9.46-4.743h.295c.53 3.558 3.584 4.685 6.994 4.685 2.643 0 5.201-.83 6.17-1.94v-1.914l-3.468-1.66v-19.273c0-7.47-5.287-10.203-14.102-10.203-5.759 0-9.522 1.45-12.575 2.918v8.412h5.113l2.208-6.513zm8.369 22.755c-.629.936-1.821 1.429-2.996 1.429-2.116 0-4.113-1.185-4.113-4.861 0-2.625 2.35-5.039 4.924-5.436l2.185-.419v9.287zm-162.987-3.078c0 5.752 2.821 10.554 9.461 10.554 4.408 0 8.286-1.956 10.401-4.564v4.511h.88l13.34-1.606v-2.418l-3.702-1.955v-28.834h-.88l-13.692 2.195v3.022l3.643 1.72v19.916c-1.22.815-2.057 1.19-3.986 1.19-2.762 0-4.535-.827-4.535-4.621v-23.423h-.94l-13.691 2.195v3.022l3.701 1.72v17.374zm-14.277 2.371h-11.753c-1.292 0-2.35-.948-2.35-2.133 0-.89.646-1.838 1.469-2.431 1.763.535 3.232.651 5.406.651 8.462 0 14.279-3.854 14.279-11.088 0-3.261-1.351-5.1-3.408-6.997l5.571 1.753.011-6.616-8.872 1.662c-2.057-.773-4.936-1.725-7.58-1.725-8.462 0-14.338 4.392-14.338 11.566 0 4.389 2.175 7.65 5.465 9.489l.262.165c-1.88 1.305-5.787 4.283-5.787 7.781 0 2.609 1.705 5.159 5.23 5.93v.009c-3.702.771-7.874 2.363-7.874 6.691 0 4.447 6.346 8.845 16.688 8.845 12.869 0 18.451-6.117 18.451-14.004 0-6.523-3.584-9.548-10.871-9.548zm-7.228-23.006c2.409 0 4.059 1.696 4.059 7.648 0 6.108-1.709 7.354-4.059 7.354s-4-1.247-4-7.354c0-6.255 1.649-7.648 4-7.648zm-.057 41.513c-5.994 0-8.149-2.363-8.052-4.69.064-1.599.849-3.669 3.662-3.852h9.342c2.703 0 4.412 1.891 4.412 3.613.001 3.439-2.547 4.929-9.364 4.929zm-17.647-26.808c0-13.935-6.126-18.505-14.632-18.505-9.814 0-16.219 6.469-16.219 17.438 0 11.268 5.817 17.552 17.1 17.552 6.053 0 10.823-3.215 12.351-5.35l.165-2.714c-2.292.711-4.642 1.126-8.815 1.126-5.994 0-9.585-3.092-9.578-9.548h19.627zm-14.809-14.765c2.703 0 4.172 1.982 4.172 10.26l-9.107.534c.123-8.455 1.939-10.794 4.935-10.794zM24.738 68.731h17.981v-3.024l-3.467-1.66-.008-21.405c1.313-.914 2.811-1.404 4.457-1.404 2.997 0 4.479 1.908 4.424 4.783v18.026l-3.467 1.66v3.024h17.982v-3.024l-3.584-1.66v-20.519c0-6.107-3.491-8.835-8.227-8.835-4.466 0-8.825 1.601-11.764 4.33h.011v-18.501h-.881l-13.633 2.194v2.906l3.76 1.72v36.706l-3.584 1.66v3.024zm-19.684-9.072c0 6.104 2.873 9.96 9.396 9.96 3.407 0 7.043-.888 9.114-2.447v-4.085c-.861.28-2.351.544-3.526.544-3.173 0-4.055-1.66-4.055-4.921v-17.493h7.17v-5.692h-7.169v-7.768l-10.929 1.542v6.226l-5.054.957v4.735h5.054v18.443z" id="Shape" fill="#000"/><path d="M352.738 40.137v-3.002l13.754-2.18h.883v37.222c0 7.599-3.998 11.72-12.169 11.72-2.821 0-5.524-.647-6.876-1.472v-3.828c.939.177 2.233.236 3.115.236 2.704 0 4.996-1.474 4.996-4.301v-32.685l-3.703-1.71zm14.752-12.897c0 3.181-2.645 5.77-5.819 5.77-3.233 0-5.819-2.59-5.819-5.77 0-3.239 2.586-5.831 5.819-5.831 3.174 0 5.819 2.592 5.819 5.831zm36.193 25.148c0 11.191-6.876 17.374-16.87 17.374-9.993 0-16.869-6.183-16.869-17.374 0-11.19 6.876-17.315 16.869-17.315 9.994 0 16.87 6.125 16.87 17.315zm-11.462 0c0-10.895-1.704-12.781-5.349-12.781-3.645 0-5.467 1.886-5.467 12.781 0 10.896 1.823 12.78 5.467 12.78 3.644 0 5.349-1.884 5.349-12.78zm25.22-13.487h.411c1.881-2.003 4.995-3.829 9.229-3.829 5.642 0 11.579 4.534 11.579 16.785 0 13.428-7.641 17.903-17.812 17.903-6.112 0-11.52-1.295-14.341-2.944v-38.34l-3.646-1.649v-3.005l13.696-2.177h.883v17.256h.001zm9.755 13.781c0-8.894-2.409-11.19-5.817-11.19-1.765 0-2.999.412-3.938.884v22.321c.645.529 1.645 1.118 3.584 1.118 4.116 0 6.172-3.711 6.172-13.133zm13.529 14.958v-8.716h4.644l1.882 5.477c.763.707 3.409 1.061 5.29 1.061 3.117 0 5.29-.709 5.29-3.299 0-2.414-.823-3.417-4.348-4.18l-3.999-.885c-6.054-1.356-8.876-6.183-8.876-11.07 0-6.304 4.29-10.956 13.991-10.956 3.879 0 7.817.589 10.403 1.707v8.128h-4.584l-1.41-4.534c-.765-.412-3.058-.824-4.822-.824-2.585 0-4.349 1.236-4.349 3.237 0 1.945.882 3.121 4.527 3.888l3.879.824c6.344 1.356 8.757 5.596 8.757 10.603 0 6.889-4.351 11.602-14.813 11.602-3.528 0-8.289-.708-11.462-2.063z" fill="#00A194"/></g></svg>