<svg width="476" height="104" viewBox="0 0 476 104" xmlns="http://www.w3.org/2000/svg"><title>RGB_The Guardian_OneLine-Jobs</title><desc>Created with Sketch.</desc><g fill-rule="nonzero" fill="none"><path d="M71.148 55.369l5.427-2.824v-42.681h-4.103l-10.032 13.309h-1.125l.632-14.832h43.483l.632 14.832h-1.196l-9.823-13.309h-4.208v42.589l5.463 2.884v1.439h-25.149z" fill="#000"/><g><path d="M110.276 53.481v-47.293l-4.215-1.687v-.881l15.251-2.74h1.608v22.377l.423-.357c3.372-2.951 8.217-4.847 13.065-4.847 6.673 0 9.624 3.765 9.624 10.791v24.637l3.565 1.941.001 1.433h-19.935v-1.425l3.584-1.949v-24.717c0-3.864-1.688-5.409-4.848-5.409-2.108 0-3.925.661-5.268 1.74v28.453l3.512 1.94v1.368h-19.948v-1.359l3.58-2.016z" fill="#000"/><path d="M160.217 37.158l11.316-.692c0-9.683-1.66-16.111-4.98-16.111-3.527 0-6.336 7.465-6.336 16.803zm.207 1.801c.416 7.816 3.917 13.865 12.216 13.865 4.012 0 6.86-1.86 9.545-3.275v1.539c-2.076 2.836-7.331 6.821-14.663 6.821-12.864 0-19.435-7.151-19.435-19.531 0-12.103 7.192-19.64 18.812-19.64 10.928 0 16.599 5.461 16.599 19.848v.372h-23.075z" fill="#000"/><path d="M.239 75.718c0-20.584 13.624-27.913 28.803-27.913 6.441 0 12.513 1.036 15.92 2.443l.295 14.364h-1.447l-8.911-13.897c-1.527-.656-2.975-.912-5.64-.912-8.071 0-12.193 9.321-12.064 24.607.155 18.289 3.332 26.591 10.736 26.591 1.925 0 3.405-.297 4.443-.741v-19.58l-4.887-2.801v-1.64h23.621v1.748l-4.815 2.693v19.325c-3.999 1.556-10.736 3.036-17.844 3.036-17.252 0-28.211-7.996-28.211-27.321" fill="#000"/><path d="M49.094 66.111v-1.187l15.889-2.801 1.741.145v31.301c0 3.773 1.813 4.933 4.86 4.933 1.959 0 3.733-.745 5.152-2.433v-28.072l-4.353-1.887v-1.233l15.888-2.801 1.597.145v35.879l4.28 1.799v1.14l-15.671 1.928-1.597-.145v-4.716h-.435c-2.903 2.685-6.965 5.005-11.899 5.005-7.617 0-11.1-4.497-11.1-11.317v-23.796l-4.353-1.887z" fill="#000"/><path d="M148.607 62.056l1.305.145-.003 11.588h.363c1.696-8.496 5.441-11.667 10.012-11.667.725 0 1.523.073 1.959.292v11.855c-.727-.217-2.032-.291-3.265-.291-3.627 0-6.293.656-8.633 1.725l.004 22.903 3.612 2.004.001 1.487h-20.6v-1.473l3.709-2.013v-31.249l-4.353-1.297v-1.061l15.889-2.947z" fill="#000"/><path d="M188.47 96.65v-31.387c-1.015-.652-1.749-1.459-4.383-1.365-4.285.151-6.935 6.624-6.935 18.16 0 10.375 1.904 16.175 7.619 15.983 1.595-.053 2.901-.624 3.699-1.391m.024-33.617v-12.221l-4.353-1.524v-.979l16.033-2.948 1.524.217v52.505l4.425 1.607v1.353l-15.816 2.133-1.232-.145v-4.345h-.364c-2.321 2.321-5.515 4.425-10.519 4.425-8.635 0-14.947-6.601-14.947-20.096 0-14.221 7.328-21.216 18.428-21.216 3.192 0 5.587.58 6.82 1.233" fill="#000"/><path d="M224.902 52.181c0 3.845-3.265 6.747-7.039 6.747-3.917 0-6.964-2.901-6.964-6.747 0-3.845 3.047-6.82 6.964-6.82 3.773 0 7.039 2.975 7.039 6.82zm-1.451 9.839l1.377.145v36.44l3.623 2.005.001 1.487h-20.6v-1.473l3.699-2.013v-30.685l-4.425-1.741v-1.217l16.325-2.947z" fill="#000"/><path d="M271.147 98.61v-31.023l-4.353-1.524v-1.504l15.816-2.947 1.596.145v4.643h.436c3.409-3.047 8.488-5.005 13.495-5.005 6.892 0 9.939 3.264 9.939 10.52v26.635l3.693 2.06.003 1.487h-20.6v-1.473l3.7-2.013v-25.971c0-3.989-1.741-5.585-5.005-5.585-2.105 0-3.839.533-5.441 1.731v29.815l3.627 2.011v1.487h-20.607v-1.473l3.703-2.013z" fill="#000"/><path d="M248.74 96.645v-15.679l-2.636.213c-4.135.356-5.632 2.993-5.632 8.837 0 6.344 2.068 7.983 4.989 7.983 1.64 0 2.567-.499 3.279-1.355zm0-17.532v-5.203c0-7.84-1.709-10.405-6.556-10.405-.571 0-1.069.071-1.64.143l-8.624 11.688h-1.211v-10.761c3.705-1.141 8.337-2.495 14.467-2.495 10.549 0 16.677 2.923 16.677 11.76v25.372l3.777.997v.997c-1.496.927-4.491 1.783-7.768 1.783-5.203 0-7.697-1.711-8.837-4.563h-.356c-2.209 2.995-5.345 4.705-10.263 4.705-6.272 0-10.548-3.92-10.548-10.691 0-6.557 4.061-10.121 12.329-11.688l8.552-1.64z" fill="#000"/><path d="M115.029 96.645v-15.679l-2.636.213c-4.135.356-5.631 2.993-5.631 8.837 0 6.344 2.068 7.983 4.989 7.983 1.639 0 2.565-.499 3.277-1.355zm0-17.532v-5.203c0-7.84-1.709-10.405-6.556-10.405-.569 0-1.069.071-1.64.143l-8.624 11.688h-1.211v-10.761c3.705-1.141 8.339-2.495 14.467-2.495 10.549 0 16.679 2.923 16.679 11.76v25.372l3.776.997v.997c-1.496.927-4.489 1.783-7.768 1.783-5.203 0-7.697-1.711-8.837-4.563h-.356c-2.209 2.995-5.345 4.705-10.263 4.705-6.272 0-10.548-3.92-10.548-10.691 0-6.557 4.061-10.121 12.329-11.688l8.552-1.64z" fill="#000"/><path d="M326.471 100.962l-.435-14.993h1.231l8.476 15.427c4.489 0 6.589-2.896 6.589-10.285v-39.184l-4.997-1.015v-1.231h24.989v1.231l-4.708 1.015v34.549c0 10.648-5.579 16.152-17.964 16.152-5.213 0-9.777-.289-13.181-1.665" fill="#00A194"/><path d="M375.199 81.985c0 15.645 2.1 19.701 6.156 19.701 3.984 0 6.012-4.128 6.012-19.773 0-15.572-1.956-19.339-6.085-19.339-3.983 0-6.083 3.839-6.083 19.411m-14.269-.072c0-12.748 8.112-20.643 20.281-20.643 12.168 0 20.425 7.895 20.425 20.715 0 12.893-8.112 21.005-20.355 21.005-12.095 0-20.352-8.185-20.352-21.077" fill="#00A194"/><path d="M429.107 82.203c0-11.807-2.608-15.428-7.099-15.428-1.595 0-3.043.363-4.201.871v32.376c1.013.941 2.389 1.52 4.129 1.52 4.419 0 7.171-4.781 7.171-19.339m13.907-1.304c0 15.356-8.692 22.019-21.585 22.019-6.808 0-13.253-1.376-16.876-3.476v-49.543l-4.417-1.667v-1.232l15.789-2.317 1.593.217v21.368h.435c2.028-2.317 6.012-4.999 11.371-4.999 7.533 0 13.691 5.216 13.691 19.629" fill="#00A194"/><path d="M475.037 89.735c0 8.185-5.721 13.111-16.297 13.111-4.78 0-9.704-.579-13.543-2.028l-.436-11.733h1.232l10.357 12.096c.725.216 1.521.361 2.173.361 4.419 0 6.447-2.391 6.447-6.084 0-3.26-1.739-4.492-6.303-6.664l-2.391-1.087c-7.241-3.404-11.443-6.953-11.443-13.616 0-8.112 5.649-12.893 15.355-12.893 3.985 0 8.329.363 11.661 1.304l.363 10.937h-1.232l-7.893-10.575c-.871-.291-1.74-.435-2.536-.435-3.912 0-5.649 2.245-5.649 5.504 0 3.549 1.665 4.708 6.519 6.953l2.245 1.015c7.46 3.476 11.371 6.591 11.371 13.833" fill="#00A194"/></g></g></svg>