<?xml version="1.0" encoding="utf-8"?>
<!-- Generator: Adobe Illustrator 16.0.1, SVG Export Plug-In . SVG Version: 6.00 Build 0)  -->
<!DOCTYPE svg PUBLIC "-//W3C//DTD SVG 1.1//EN" "http://www.w3.org/Graphics/SVG/1.1/DTD/svg11.dtd">
<svg version="1.1" id="Layer_1" xmlns="http://www.w3.org/2000/svg" xmlns:xlink="http://www.w3.org/1999/xlink"
	 width="220px" height="30px" viewBox="0 0 900 120" enable-background="new 0 0 220 30" xml:space="preserve">
<g>
	<g>
		<path fill="#FFFFFF" d="M594.684,91.964h34.615v-5.769l-6.674-3.167V42.101c2.492-1.789,5.43-2.402,8.596-2.402
			c5.771,0,8.482,2.378,8.482,8.941v34.389l-6.672,3.167v5.769h34.615v-5.769l-6.9-3.167V43.885c0-11.65-5.316-16.855-15.838-16.855
			c-8.596,0-16.969,3.054-22.623,8.26l0,0v-8.26h-1.699l-26.244,4.187v5.543l7.242,3.281v42.988l-6.9,3.167V91.964z"/>
		<path fill="#FFFFFF" d="M514.131,0.786c-6.221,0-11.197,4.977-11.197,11.2c0,6.108,4.977,11.085,11.197,11.085
			c6.109,0,11.201-4.978,11.201-11.085C525.332,5.763,520.24,0.786,514.131,0.786"/>
		<polygon fill="#FFFFFF" points="496.824,30.992 496.824,36.76 503.951,40.041 503.951,82.913 497.164,86.08 497.164,91.964
			531.781,91.964 531.781,86.08 524.992,82.913 524.992,26.803 523.295,26.803 		"/>
		<path fill="#FFFFFF" d="M467.387,80.048c-1.527,1.262-3.279,2.186-6.447,2.186c-8.373,0-12.33-6.785-12.33-22.397
			c0-17.873,4.977-23.867,11.648-23.867c3.738,0,5.602,1.166,7.129,2.845V80.048z M467.387,29.859
			c-2.602-1.812-6.674-2.837-10.182-2.837c-15.574,0-30.296,8.93-30.296,34.496c0,24.32,14.827,32.141,24.755,32.141
			c7.918,0,13.346-3.505,15.949-6.898h0.678v6.678h1.811l25-2.944v-4.612l-6.674-3.729V1.239h-1.697l-26.357,4.184v5.772
			l7.014,3.165V29.859z"/>
		<path fill="#FFFFFF" d="M378.947,30.992v5.768l7.013,3.281v42.873l-6.673,3.167v5.884h36.424V86.08l-8.71-3.167V49.325
			c3.724-2.929,8.373-3.856,14.026-3.856c1.81,0,4.073,0.227,5.318,0.566V27.596c-0.679-0.225-2.035-0.34-3.167-0.34
			c-6.9,0-13.233,4.526-16.968,12.897l0,0v-13.35h-1.81L378.947,30.992z"/>
		<path fill="#FFFFFF" d="M333.751,35.986c1.496-0.666,4.575-0.697,5.591-0.697c8.144,0,10.519,4.071,10.519,12.104l-0.016,7.148
			l-12.062,2.265c-12.348,2.279-21.663,6.03-21.663,19.04c0,10.52,7.387,17.811,17.452,17.811c7.92,0,15.386-3.392,18.212-9.049
			h0.568c1.018,6.788,6.899,8.938,13.46,8.938c5.091,0,10.012-1.583,11.879-3.7v-3.651l-6.677-3.167V46.261
			c0-14.25-10.178-19.464-27.147-19.464c-11.086,0-18.33,2.767-24.207,5.567v16.047h9.841L333.751,35.986z M349.861,79.395
			c-1.21,1.786-3.505,2.726-5.768,2.726c-4.073,0-7.917-2.261-7.917-9.273c0-5.007,4.523-9.612,9.477-10.37l4.208-0.799V79.395z"/>
		<path fill="#FFFFFF" d="M548.771,35.986c1.496-0.666,4.574-0.697,5.59-0.697c8.145,0,10.52,4.071,10.52,12.104l-0.016,7.148
			l-12.061,2.265c-12.35,2.279-21.666,6.03-21.666,19.04c0,10.52,7.387,17.811,17.453,17.811c7.92,0,15.385-3.392,18.211-9.049
			h0.568c1.02,6.788,6.9,8.938,13.463,8.938c5.088,0,10.012-1.583,11.877-3.7v-3.651l-6.676-3.167V46.261
			c0-14.25-10.178-19.464-27.148-19.464c-11.086,0-18.33,2.767-24.207,5.567v16.047h9.842L548.771,35.986z M564.881,79.395
			c-1.211,1.786-3.506,2.726-5.768,2.726c-4.074,0-7.918-2.261-7.918-9.273c0-5.007,4.523-9.612,9.479-10.37l4.207-0.799V79.395z"/>
		<path fill="#FFFFFF" d="M251.119,73.524c0,10.974,5.43,20.134,18.213,20.134c8.485,0,15.951-3.731,20.023-8.707l0,0v8.605h1.695
			l25.68-3.063v-4.612l-7.127-3.729V27.145h-1.695l-26.358,4.187v5.766l7.013,3.282v37.993c-2.348,1.554-3.959,2.271-7.673,2.271
			c-5.317,0-8.73-1.577-8.73-8.816V27.145h-1.809l-26.357,4.187v5.766l7.125,3.282V73.524z"/>
		<path fill="#FFFFFF" d="M223.635,78.047H201.01c-2.488,0-4.524-1.809-4.524-4.069c0-1.697,1.244-3.507,2.828-4.638
			c3.393,1.02,6.222,1.242,10.407,1.242c16.289,0,27.488-7.352,27.488-21.153c0-6.221-2.601-9.73-6.561-13.349l10.725,3.345
			l0.021-12.622l-17.08,3.171c-3.959-1.474-9.502-3.29-14.593-3.29c-16.29,0-27.602,8.379-27.602,22.065
			c0,8.373,4.187,14.593,10.521,18.102l0.505,0.314c-3.619,2.489-11.14,8.17-11.14,14.844c0,4.978,3.282,9.842,10.069,11.312v0.018
			c-7.127,1.471-15.158,4.507-15.158,12.765c0,8.484,12.216,16.873,32.126,16.873c24.773,0,35.52-11.669,35.52-26.715
			C244.562,83.819,237.663,78.047,223.635,78.047 M209.721,34.159c4.637,0,7.813,3.236,7.813,14.59
			c0,11.652-3.289,14.03-7.813,14.03s-7.7-2.378-7.7-14.03C202.021,36.816,205.196,34.159,209.721,34.159 M209.612,113.353
			c-11.539,0-15.688-4.507-15.501-8.947c0.124-3.05,1.634-7,7.05-7.348h17.984c5.203,0,8.493,3.608,8.493,6.892
			C227.639,110.51,222.735,113.353,209.612,113.353"/>
		<path fill="#FFFFFF" d="M175.641,62.211c0-26.583-11.793-35.302-28.167-35.302c-18.892,0-31.223,12.341-31.223,33.266
			c0,21.495,11.199,33.484,32.919,33.484c11.652,0,20.835-6.133,23.777-10.206l0.318-5.177c-4.413,1.357-8.937,2.149-16.969,2.149
			c-11.538,0-18.451-5.898-18.438-18.214H175.641z M147.133,34.043c5.204,0,8.032,3.781,8.032,19.572l-17.532,1.019
			C137.87,38.505,141.365,34.043,147.133,34.043"/>
		<path fill="#FFFFFF" d="M47.623,91.964h34.615v-5.769l-6.674-3.167l-0.015-40.834c2.527-1.744,5.411-2.679,8.581-2.679
			c5.769,0,8.622,3.64,8.516,9.125v34.389l-6.675,3.167v5.769h34.616v-5.769l-6.899-3.167V43.885c0-11.65-6.72-16.855-15.838-16.855
			c-8.597,0-16.989,3.054-22.646,8.26h0.021V-0.005h-1.696L47.284,4.18v5.543l7.239,3.281v70.024l-6.9,3.167V91.964z"/>
		<path fill="#FFFFFF" d="M9.729,74.657c0,11.644,5.531,19.001,18.088,19.001c6.559,0,13.558-1.694,17.545-4.669v-7.793
			c-1.657,0.535-4.525,1.037-6.788,1.037c-6.108,0-7.806-3.167-7.806-9.387V39.474H44.57V28.615H30.769V13.796L9.729,16.737v11.878
			L0,30.441v9.033h9.729V74.657z"/>
	</g>
	<g>
		<path fill="#5BC3DF" d="M680.117,36.756V30.99l26.467-4.187h1.699v71.489c0,14.594-7.693,22.51-23.418,22.51
			c-5.428,0-10.631-1.243-13.232-2.827v-7.352c1.807,0.34,4.297,0.453,5.994,0.453c5.203,0,9.615-2.831,9.615-8.26V40.041
			L680.117,36.756z M708.506,11.986c0,6.11-5.09,11.083-11.197,11.083c-6.221,0-11.197-4.974-11.197-11.083
			c0-6.221,4.977-11.2,11.197-11.2C703.416,0.786,708.506,5.765,708.506,11.986z"/>
		<path fill="#5BC3DF" d="M778.154,60.286c0,21.493-13.232,33.369-32.465,33.369c-19.23,0-32.463-11.876-32.463-33.369
			c0-21.491,13.232-33.256,32.463-33.256C764.922,27.03,778.154,38.794,778.154,60.286z M756.096,60.286
			c0-20.925-3.279-24.547-10.293-24.547s-10.521,3.622-10.521,24.547c0,20.928,3.508,24.546,10.521,24.546
			S756.096,81.214,756.096,60.286z"/>
		<path fill="#5BC3DF" d="M804.629,34.383h0.791c3.619-3.847,9.613-7.354,17.76-7.354c10.857,0,22.283,8.709,22.283,32.238
			c0,25.791-14.705,34.386-34.277,34.386c-11.762,0-22.168-2.487-27.598-5.654V14.361l-7.016-3.167V5.423l26.357-4.182h1.699V34.383
			z M823.402,60.852c0-17.082-4.635-21.491-11.195-21.491c-3.396,0-5.771,0.791-7.578,1.697v42.87
			c1.242,1.016,3.166,2.148,6.896,2.148C819.445,86.076,823.402,78.949,823.402,60.852z"/>
		<path fill="#5BC3DF" d="M849.436,89.581v-16.74h8.936l3.621,10.52c1.469,1.358,6.561,2.038,10.18,2.038
			c5.998,0,10.18-1.361,10.18-6.336c0-4.636-1.584-6.562-8.367-8.029l-7.695-1.699c-11.65-2.604-17.08-11.876-17.08-21.262
			c0-12.108,8.256-21.042,26.924-21.042c7.465,0,15.043,1.132,20.02,3.278V45.92h-8.822l-2.713-8.709
			c-1.473-0.791-5.885-1.582-9.279-1.582c-4.975,0-8.369,2.373-8.369,6.217c0,3.735,1.697,5.995,8.711,7.467l7.465,1.582
			C895.357,53.5,900,61.643,900,71.26c0,13.232-8.373,22.283-28.506,22.283C864.705,93.543,855.543,92.184,849.436,89.581z"/>
	</g>
</g>
</svg>
