<svg xmlns="http://www.w3.org/2000/svg" width="300" height="90" viewBox="0 0 300 90"><g fill="#fff"><path d="M164.8.38a2.62 2.62 0 0 0 0 5.23 2.63 2.63 0 0 0 2.63-2.6c0-1.45-1.2-2.62-2.62-2.62M183.7 21.82h8.1v-1.36l-1.55-.74v-9.6a3.35 3.35 0 0 1 2.02-.56c1.35 0 1.98.56 1.98 2.1v8.06l-1.56.74v1.35h8.1v-1.34l-1.6-.74v-9.18c0-2.73-1.26-3.95-3.72-3.95-2.02 0-3.98.7-5.3 1.92V6.6h-.4l-6.16.97v1.3l1.7.77v10.08l-1.62.75v1.35zm-22.95-14.3v1.35l1.67.77V19.7l-1.6.74v1.38h8.12v-1.38l-1.6-.75V6.54h-.4zm-6.9 11.5c-.36.3-.78.52-1.52.52-1.96 0-2.9-1.6-2.9-5.26 0-4.2 1.18-5.6 2.74-5.6.88 0 1.3.28 1.67.67v9.67zm0-11.77a4.46 4.46 0 0 0-2.4-.66c-3.64 0-7.1 2.08-7.1 8.08 0 5.7 3.48 7.53 5.8 7.53 1.86.02 3.14-.8 3.75-1.6h.16v1.56h.42l5.86-.7V20.4l-1.56-.88V.54h-.4l-6.18.98v1.36l1.65.74v3.63zm-20.5.27v1.35l1.65.77V19.7l-1.57.74v1.38h8.54v-1.38l-2.04-.74v-7.88c.87-.7 1.96-.9 3.3-.9.4 0 .94.05 1.24.13V6.72a2.9 2.9 0 0 0-.75-.08c-1.6 0-3.1 1.07-3.97 3.03V6.54h-.43l-5.97.98zm-10.6 1.17a4.14 4.14 0 0 1 1.3-.17c1.92 0 2.48.95 2.48 2.84v1.67l-2.83.53c-2.9.54-5.08 1.42-5.08 4.47a3.98 3.98 0 0 0 4.1 4.17c1.85 0 3.6-.78 4.26-2.1h.13c.25 1.6 1.63 2.1 3.17 2.1 1.2 0 2.35-.38 2.8-.88v-.85l-1.58-.75V11.1c0-3.34-2.4-4.56-6.38-4.56-2.6 0-4.3.64-5.67 1.3v3.76h2.3l1-2.9zm3.78 10.17c-.28.42-.82.64-1.35.64-.96 0-1.86-.52-1.86-2.17 0-1.17 1.06-2.25 2.22-2.43l1-.2v4.17zm46.4-10.18a4.13 4.13 0 0 1 1.3-.17c1.92 0 2.48.95 2.48 2.84v1.67l-2.82.53c-2.9.54-5.08 1.42-5.08 4.47a3.98 3.98 0 0 0 4.1 4.17c1.85 0 3.6-.78 4.26-2.1h.13c.23 1.6 1.6 2.1 3.15 2.1 1.2 0 2.35-.38 2.8-.88v-.85l-1.58-.75V11.1c0-3.34-2.4-4.56-6.36-4.56-2.6 0-4.3.64-5.67 1.3v3.76h2.3l1-2.9zm3.78 10.17c-.27.42-.8.64-1.35.64-.95 0-1.85-.52-1.85-2.17 0-1.17 1.06-2.25 2.22-2.43l1-.2v4.17zm-73.33-1.38c0 2.57 1.28 4.72 4.28 4.72 2 0 3.74-.88 4.7-2.05v2.02h.4l6-.73V20.4l-1.66-.88V6.62h-.4l-6.2.98v1.35l1.65.77v8.9c-.54.37-.92.54-1.8.54-1.24 0-2.04-.37-2.04-2.06V6.62h-.42l-6.18.98v1.35l1.67.77v7.77zm-6.25 1.05h-5.3c-.6 0-1.07-.42-1.07-.95 0-.4.3-.82.67-1.1.8.25 1.46.3 2.44.3 3.82 0 6.44-1.72 6.44-4.96 0-1.46-.6-2.28-1.54-3.13l2.52.8V6.54l-4 .74c-.93-.35-2.23-.77-3.42-.77-3.82 0-6.48 1.97-6.48 5.18 0 1.97 1 3.43 2.47 4.25l.12.07c-.85.58-2.6 1.92-2.6 3.48 0 1.17.76 2.3 2.35 2.65-1.67.35-3.56 1.06-3.56 3 0 2 2.87 3.96 7.54 3.96 5.8 0 8.33-2.75 8.33-6.28 0-2.9-1.62-4.26-4.9-4.26m-3.27-10.3c1.08 0 1.83.76 1.83 3.42 0 2.74-.78 3.3-1.84 3.3s-1.8-.56-1.8-3.3c0-2.8.74-3.42 1.8-3.42m-.03 18.57c-2.7 0-3.68-1.05-3.63-2.1.03-.7.38-1.64 1.65-1.72h4.22c1.22 0 2 .86 2 1.63 0 1.54-1.16 2.2-4.24 2.2m-7.4-12c0-6.22-2.75-8.27-6.6-8.27-4.42 0-7.3 2.9-7.3 7.8-.02 5.05 2.6 7.86 7.7 7.86 2.74 0 4.9-1.44 5.58-2.4l.1-1.2c-1.05.3-2.1.5-4 .5-2.7 0-4.32-1.4-4.32-4.28h8.86zm-6.67-6.6c1.22 0 1.88.9 1.88 4.6l-4.1.23c.04-3.78.86-4.83 2.22-4.83"/><path d="M56.42 21.82h8.12v-1.36l-1.57-.74v-9.58a3.5 3.5 0 0 1 2-.62c1.37 0 2.03.85 2 2.14v8.06l-1.56.74v1.36h8.13v-1.36l-1.62-.74v-9.18c0-2.73-1.56-3.95-3.7-3.95-2.02 0-3.98.7-5.3 1.92V.25h-.4l-6.16.98v1.3l1.7.77v16.42l-1.62.75v1.35zm-8.9-4.06c0 2.73 1.3 4.45 4.25 4.45 1.54.02 3.18-.38 4.12-1.08V19.3c-.4.12-1.07.24-1.6.24-1.43 0-1.83-.75-1.83-2.2V9.5h3.23V6.97h-3.23V3.48l-4.94.7v2.78l-2.28.43v2.1h2.28v8.26z"/></g><path fill="#fff" d="M148.9 61.3a303.2 303.2 0 0 0 5.48-17.2c.73-2.64 2.5-1.8 3.98-1.8 1.6.02 2.84.77 2.77 2.66-.1 3.06-.3 6.12-.3 9.18-.3 18.9 4.34 6.1 10.27-10.93 1.04-3.26 2.36-4.67 4.46-4.33 1.9.3 3.23 2.4 3.02 5.47a36.88 36.88 0 0 0 2.63 16.56 16.48 16.48 0 0 0 3.38 4.8c2.4 2.56-.12 3.4-1.52 3.57-7.27.88-7.56-9.7-9.45-11.56-1.54 2.92-2.75 5.08-3.9 7.27-5.47 10.4-11.77 4.73-13.25 1.22-.8-1.88-1.4-2.18-2.4-.24-1.2 2.36-2.52 4.67-3.87 6.95-1.66 2.8-6.47 2.6-8.33-.5-1-1.65-1.5-3.62-2.2-5.46-.28-.7-.47-1.44-1.02-2.27-3.3 5.37-15.78 11.85-24.6 6.2-7.94-5.1-5.97-26.12 5.43-36.1 13.07-12 19.38.32 12.76 10.54-4.03 6.28-9.22 11.5-14.84 16.38-.8.7-1.1 3.05-.47 4.15 2.18 3.83 10.95 1.94 16.7-5.16 3.45-4.27 4.62-8.78 4.5-14-.04-1.63-.95-3.98 2.14-4.12 2.67-.13 4.73 1.4 4.8 4.1.1 3.2-.92 11.86.45 18.6.7 1.4 2.87-2.4 3.4-3.94m-21.42-24.54c-1.36-1.2-7.9 6.97-9.58 12.54-.15.4-.02 2.15 1.64.9 4.1-3.04 11.07-9.6 7.94-13.44M91.82 71.72c-1.03 1.76-1.6 2.95-3.3 2.75-2.04-.23-3.9-1.25-4.33-3.28-.87-4.18-1.36-8.43-1.94-12.66-.33-2.43-.54-4.88-1.32-7.33-2.32 8.6-4.18 26.1-7.84 25.62-4.74-.53-5.63-1.36-5.58-6.92.06-6.73 0-22.67 1.26-29.26.35-1.78 3.5-3.88 7.5.37 1-3.43 2.08-7.37 2.55-10.06.45-2.56 2.17-2.55 4.12-2.54 2 0 3.12 1.23 3.27 2.9 1.4 15.93 1.64 24.7 3.42 26.22.68-2.12 1.4-3.97 1.95-6.12 1.1-4.2 2-8.45 3.1-12.65.5-1.9.93-3.97 1.98-5.57.63-.95 2.63-1.8 3.6-1.48 1.28.4 3.48 2 3.03 3.2-2.26 6.08.4 30.9.4 37.18 0 2.56-6.08 1.98-6.4-2.96-.18-2.95 0-5.9 0-8.86-1.32-1.7-3.15 6.96-5.48 11.46m184.62-9.26c-1.7-3.16-3.5-6.26-5.46-9.27-5.12-7.9-5.42-10.67-1.6-17.05 1.1-1.82.84-3-.37-4.25-1.33-1.42-3.68-1.73-4.97-.6-10.54 8.46-13.2 16.3-16.6 19.57-.1-1.54-.24-2.4-.23-3.24.07-5.13-6.03-2.55-6.48-1.58-1.5 3.2-2.36 6.72-3.43 10.12-1.7 5.34-4.42 9.84-10.1 11.55-1.77.54-4.8-1.05-3.3-2.3 2.1-1.75 4.3-3.32 6.44-5 5.18-4.12 6.67-9.55 5.04-15.92-1.1-4.3-4.07-6-7.84-6.34-3.43-.35-10.75 4.28-11.75 19.62-.77 3.18-3.65 4.45-4.85.72-1.37-4.6-2.56-9.28-4.25-13.76-1.44-3.82-5.62-6.13-10.8 2.25-1.1-3.4 1.1-14.8-.26-19.7-.75-2.66-6.26-3.87-6.23 1.33-1.1 16.45.4 24.27.57 28.46.15 3.13-3.33 3.13-1.9 6.25.65 1.36.4 3.2 1.23 4.35 3.7 5.06 8.85 7 15 6 3.7-.47 4.95-3 8.8-8.04 4.98 1.94 7.18 5.13 8.75 6.5 6.4 6.68 14.8-3.78 19.13-6.7 0 1.88 3.4 3.46 5.34 3.38 1.98.08 2.06-2.28 2.27-3.96 3.93-7.68 6.76-14.73 11.54-19.78 1.2 2.44 2.1 4.6 3.27 6.6 2.1 3.6 4.35 7.1 6.56 10.65.73 1.17.2 1.98-.8 2.8-1.4 1.33-5.17 3.05-11.4 1.5-2.15-.56-.15 7.35 6.07 6.94a18.8 18.8 0 0 0 10.92-4.1c1.98-1.6 2.9-4.8 1.7-7.04m-77.3 5.97c-.67-.37-1.46-1.58-1.3-2.18 1.14-4.58 2.5-9.1 3.8-13.64.07-.94.84-1.37 1.25-.58.93 3.88 2.15 7.73 2.7 11.66.4 2.87-4.15 6.02-6.45 4.75m23.57-12.94c1.6-7.32 2.7-8.26 4.05-9.8.86-1.02 2.55-1.78 2.85.8.3 2.6-.2 4.8-1.67 6.75-1.22 1.6-3.1 3.05-4.8 4.38-.86.34-.64-1.53-.43-2.14"/></svg>