<svg xmlns="http://www.w3.org/2000/svg" width="180" height="48" viewBox="0 0 180 48"><g fill="#fff"><path d="M85.02.2a1.86 1.86 0 0 0 0 3.7c1.02 0 1.87-.83 1.87-1.85C86.9 1.02 86.03.2 85 .2M98.45 15.43h5.77v-.96l-1.1-.53V7.1c.4-.28.9-.4 1.43-.4.96 0 1.4.4 1.4 1.5v5.74l-1.1.53v.96h5.77v-.96l-1.15-.53V7.4c0-1.93-.9-2.8-2.64-2.8-1.44 0-2.83.5-3.78 1.38V4.6h-.28l-4.37.7v.92l1.2.55v7.17l-1.15.53v.96zM82.13 5.26v.96l1.2.55v7.15l-1.14.53v.98h5.76v-.98l-1.13-.53V4.56h-.28zm-4.9 8.18c-.26.2-.55.37-1.08.37-1.4 0-2.06-1.12-2.06-3.73 0-2.98.82-3.98 1.93-3.98.63 0 .94.2 1.2.47v6.87zm0-8.37c-.44-.3-1.12-.47-1.7-.47-2.6 0-5.06 1.5-5.06 5.75 0 4.06 2.48 5.36 4.13 5.36a3.3 3.3 0 0 0 2.66-1.14h.1v1.1h.32l4.16-.48v-.76l-1.1-.63V.3h-.3l-4.4.7v.96l1.18.53v2.57zm-14.58.2v.95l1.17.55v7.15l-1.1.53v.98h6.06v-.98l-1.45-.53v-5.6c.62-.5 1.4-.64 2.34-.64.3 0 .68.04.88.1V4.7c-.1-.04-.34-.06-.52-.06-1.15 0-2.2.75-2.83 2.15V4.55h-.3l-4.25.7zm-7.54.82c.26-.12.77-.12.95-.12 1.35 0 1.75.68 1.75 2.02v1.2l-2 .37c-2.07.38-3.63 1-3.63 3.17a2.83 2.83 0 0 0 2.9 2.97c1.33 0 2.58-.55 3.05-1.5h.1c.16 1.14 1.15 1.5 2.24 1.5.85 0 1.67-.27 1.98-.62v-.6l-1.1-.54V7.8c0-2.37-1.7-3.24-4.54-3.24-1.85 0-3.06.46-4.04.93v2.67h1.64l.7-2.08zm2.7 7.23c-.2.3-.6.46-.96.46-.68 0-1.32-.4-1.32-1.56 0-.83.75-1.6 1.58-1.73l.7-.12v2.95zm33-7.24c.24-.12.76-.12.93-.12 1.36 0 1.75.68 1.75 2.02v1.2l-2 .37c-2.07.38-3.62 1-3.62 3.17a2.83 2.83 0 0 0 2.9 2.97c1.33 0 2.57-.55 3.04-1.5h.1c.17 1.14 1.15 1.5 2.24 1.5.85 0 1.67-.27 1.98-.62v-.6l-1.1-.54V7.8c0-2.37-1.7-3.24-4.54-3.24-1.85 0-3.05.46-4.03.93v2.67h1.64l.7-2.08zm2.68 7.23c-.2.3-.58.46-.96.46-.68 0-1.32-.4-1.32-1.56 0-.83.75-1.6 1.58-1.73l.7-.12v2.95zm-52.15-.98c0 1.84.9 3.36 3.04 3.36 1.4 0 2.66-.6 3.34-1.44v1.44h.3l4.27-.52v-.76l-1.2-.63V4.6h-.27l-4.4.7v.96l1.18.55v6.33c-.4.26-.66.38-1.28.38-.9 0-1.46-.26-1.46-1.47V4.62h-.3l-4.4.7v.96l1.2.55v5.52zm-4.44.76h-3.8c-.4 0-.74-.3-.74-.67 0-.28.2-.58.47-.77.57.17 1.04.2 1.73.2 2.72 0 4.6-1.22 4.6-3.52 0-1.04-.45-1.63-1.1-2.23l1.78.57v-2.1L37 5.08a7.43 7.43 0 0 0-2.44-.56c-2.7 0-4.6 1.4-4.6 3.68 0 1.4.7 2.44 1.76 3.02l.08.05c-.6.4-1.86 1.36-1.86 2.47 0 .83.55 1.64 1.68 1.9-1.2.23-2.53.74-2.53 2.12 0 1.4 2.03 2.8 5.35 2.8 4.13 0 5.92-1.94 5.92-4.45 0-2.08-1.15-3.04-3.48-3.04m-2.34-7.3c.78 0 1.3.53 1.3 2.42 0 1.95-.54 2.34-1.3 2.34-.75 0-1.28-.4-1.28-2.34 0-2 .53-2.43 1.28-2.43m0 13.2c-1.94 0-2.63-.76-2.6-1.5.02-.5.27-1.16 1.18-1.22h3c.86 0 1.4.6 1.4 1.15 0 1.1-.8 1.57-3 1.57m-5.25-8.53c0-4.44-1.98-5.9-4.7-5.9-3.16 0-5.2 2.07-5.2 5.56 0 3.58 1.85 5.58 5.48 5.58a5.25 5.25 0 0 0 3.96-1.7l.06-.85a8.9 8.9 0 0 1-2.83.36c-1.93 0-3.08-.98-3.08-3.03h6.3zm-4.76-4.7c.86 0 1.34.63 1.34 3.26l-2.93.17c.04-2.7.62-3.43 1.6-3.43"/><path d="M7.94 15.43h5.77v-.96l-1.1-.53v-6.8c.42-.3.9-.46 1.43-.46.96 0 1.44.6 1.42 1.52v5.74l-1.1.53v.96h5.76v-.96l-1.14-.53V7.4c0-1.93-1.12-2.8-2.64-2.8-1.43 0-2.83.5-3.78 1.38V.08h-.28L7.9.8v.93l1.2.56v11.68l-1.16.53v.96zm-6.32-2.9c0 1.96.93 3.18 3.02 3.18 1.1 0 2.26-.27 2.92-.77v-1.3c-.27.1-.75.18-1.13.18-1.02 0-1.3-.52-1.3-1.56V6.68h2.3v-1.8h-2.3v-2.5l-3.5.5v2L0 5.17v1.5h1.62v5.86z"/></g><path d="M25.66 48a1.6 1.6 0 0 1-.84-.36l-.18-.13c-.53-.38-1.2-.87-.86-1.96.4-1.26 3.02-9.5 3.04-9.67-.3.5-4.74 4.27-8.3 6.36-.35.2-1.4.85-1.93.7-2.46-.62-1.62-3.08-.94-3.64.05-.05.25-.17.47-.26a32.17 32.17 0 0 0 8.45-5.8c2.5-2.3 6.3-7.22 6.57-7.84l.2-.46c.2-.4.62-1.3 1.53-1.23.18.02.37.07.56.17 1.14.54 1.62 1.46 1.25 2.4-.27.65-.63 1.26-.97 1.85-.24.43-.5.87-.7 1.3a132 132 0 0 0-2.33 5.2c-.5 1.16-.9 2.34-1.3 3.46-.06.2-.1.4-.14.63l.14-.14c.6-.84 2.5-3.7 4.72-6.6 2.22-2.9 6.22-7.97 7.02-8.5.98-.64 2.25.47 2.58 1.12.33.66.4 1.37.18 1.94-1 2.73-2.02 5.44-3.04 8.16L40 36.96 39.6 38v.02c.2-.1.38-.22.5-.35 1.5-1.57 4.9-5.2 4.9-5.2 2.8-2.98 5.6-5.97 8.37-8.96.48-.5.95-.74 1.45-.7.23.02.45.1.67.22.54.33 1.46.87 1.1 2.08-.14.44-3.38 11.17-3.55 11.66a36.4 36.4 0 0 0-1.02 3.38c-.1.4-.18 1.26.2 1.88.96-.26 5.2-2.93 5.2-2.93s-.13-.62-.04-1.95a16.65 16.65 0 0 1 3.93-9.64c1.74-2.05 4.1-3.5 5.6-3.4a2.6 2.6 0 0 1 2.4 2.8c-.08 1.27-.5 2.7-1.2 4.17-1.9 3.87-3.78 6.54-6.1 8.68-.33.3-.5.43-.88.74 0 0 .17.4.7.45 1.08.1 2.05-.3 2.85-.7 2.7-1.34 5.18-3.4 7.55-6.34 1.22-1.5 2.1-2.76 2.8-4 .6-1.06 1.1-2.2 1.58-3.32.2-.5.42-.98.64-1.46.22-.48.62-1.36 1.54-1.3.2.02.4.08.6.18.62.3 1.03.72 1.2 1.24.2.54.1 1.15-.22 1.77-.9 1.76-3.84 8.63-3.84 8.63-.12.36-.07.67.05.7.1.02 4.75-5.2 7-7.73 0 0 3.7-4.03 3.9-4.3.4-.5 1.37-1.24 2.32-.7.88.52 1.24 2.03.93 2.9-.87 2.38-1.73 4.77-2.58 7.17l-.8 2.32c.24-.25.47-.48.66-.74 3.44-4.68 10.94-11.97 12.77-11.83.8.07 1.33.78 1.8 1.53.2.36.42.9-.05 1.6-.88 1.32-3.4 8.06-3.6 8.58-.27.76-1.5 4.6-1.53 4.73-.03.12-.15.46-.13.6 0 0 6.2-4.84 8.3-7.36 3.7-4.42 9.38-18.5 9.64-19 .53-1 1.52-1.62 2.56-1.5 1.12.1 1.4.85 1.44 1.53.1 2.35-7.95 16.5-7.88 16.64.33-.35 6.24-5.44 9.56-4.43 1.38.4 1.48 1.38 1.75 2.7.5 2.38-2.53 16.8-13.53 17.26a4.47 4.47 0 0 1-4.07-2.96c-.02-.05-.3.22-.6.08-.6-.33-1-.7-1.15-1.1-.13-.3-.04-.67.1-1.27.2-.8 3-3.98-.55-.65-2.97 2.8-5.98 4.8-6.47 5.14-.43.3-.98.64-1.56.58a2.66 2.66 0 0 1-1.64-.9c-.6-.75-.3-1.73.22-2.86.4-.87.98-3.35 1.1-3.77l.84-2.5c.67-2 1.33-3.97 1.98-5.96.07-.23.24-.76.13-.8l-4.2 4.62c-.62.7-6 7.23-7.43 9-.37.45-.8.66-1.32.62-.44-.04-.84-.25-1.17-.43-.88-.47-1.13-1.15-.8-2.05.4-1.1.7-2.27.97-3.4.16-.72.34-1.46.55-2.18.27-.95.6-1.9.93-2.82l.45-1.3.17-.53c-.14.2-9.06 10.65-10.42 11.84-.28.26-.78.6-1.28.57a4.84 4.84 0 0 1-1.95-1.25c-.34-.36-.57-.67.18-2.02.15-.27.47-.85.45-1.12 0-.08 0-.2-.07-.3-.1.05-3.22 3.5-7.4 5.27a6.48 6.48 0 0 1-3.1.58 5.68 5.68 0 0 1-3.67-1.8s-5.2 3.68-8.44 4.25c-.67.12-1.53-.28-2-.9-.44-.62 0-2.95.4-4.64.6-2.64 2.14-7.3 2.44-8.14.34-.95.68-1.9 1-2.86v-.03c-.13.03-.3.07-.35.1-.48.5-5.06 5.57-5.06 5.57l-5.42 5.95a73 73 0 0 0-2.54 2.9c-.35.44-.83.73-1.3.62-1.13-.26-1.88-1.44-1.8-2.1.2-1.5.5-3.08 1-5.02a172 172 0 0 1 2.12-6.84l.06-.15c-.08.03-.15.06-.17.1-.93 1.3-8.3 11.86-10.1 14.4-.5.7-.9 1.2-1.33 1.63-.38.4-.8.57-1.2.54m40.02-19.8c-2 .75-4.57 4.38-5.42 8.8 1.64-1.7 5.28-7.17 5.4-8.8m43.86 14.35c8.58-1.1 12.5-14.98 7.78-12.26-3.17 1.8-7.27 6.25-8.97 10.87-.3.78-.15 1.77 1.2 1.38m48.07 4.93a4.74 4.74 0 0 1-3.58-2.18 5.2 5.2 0 0 1-.5-4.47c.35-1.05 1.42-1.77 2.72-2.32.6-.26 4.07-2 4.07-2s.47-1.06.63-1.52l1.58-4.33s-1.35.8-3.73 1.6c-2.4.8-6.27 1.66-7.74 1.85-1.47.18-2 .65-2.52 1.3-1.4 1.68-3.1 3.94-4.62 5.9-.4.54-1 1.28-1.9 1.2-.28 0-1.2-.38-1.57-.9-.3-.42-.4-.78.06-1.82.22-.47 1.8-3.3 2.03-3.8-.02.03.05-.1 0-.13-1.2 1.2-8.8 8.34-13.28 7.98-4-.32-4.5-5.2-4.5-5.2s-.93.26-1.13.25c-.43-.03-.95-.5-1.35-1.44-.26-.6-.72-1.78-.15-1.9a40.3 40.3 0 0 0 2.62-.65c.68-4.36 2.82-7.22 3.6-8.15 2.05-2.43 4.38-3.12 5-3.2 2.77-.37 3.97 1.42 4 3.03.07 2.4-1 4.4-1.9 5.7-2.7 3.93-7.02 5.3-7.02 5.3s-.06 2.24 1.42 2.36c3.22.26 11.66-7.14 14.86-11.1.66-.82 4.13-5.25 4.38-5.53.22-.24.5-.28 1.08-.07.63.23 2.24 1.34 1.5 2.56-.75 1.22-2.98 5.1-2.98 5.1.43-.37.97-.66 1.9-.73 6.23-.5 11.66-2.72 13.55-5.26.95-1.27 2.46-2.6 3.84-1.54 1.3 1 1.5 2.33 1.06 3.16-.3.56-1.08 1.3-2.1 1.93l-2.24 6.15s10.8-5.5 12.6-6.22c.55-.22 1.76.07 2.44 1.02.4.57.34 1.15-.23 1.42-3.16 1.46-16.48 8.32-16.48 8.32s-2.08 5.52-3 7.1c-.6 1-1.82 1.3-2.34 1.24h-.06zm1.1-6.33c-1.1.52-1.84 1.05-1.94 1.5-.05.24.13.7.45.9.5.36 1.25-1.52 1.5-2.4m-28.27-11.52a14.6 14.6 0 0 0-1.55 3.86c3.13-1.7 5.3-4.34 5-6.64 0-.04-.05-.05-.08-.05-.55.1-2.37 1.14-3.36 2.83" fill="#fff"/></svg>